<svg xmlns="http://www.w3.org/2000/svg" viewBox="0 0 600 600" width="600" height="600" role="img" aria-label="Comedero elevado para mascotas impreso en 3D">
  <defs>
    <linearGradient id="bg" x1="0" y1="0" x2="1" y2="1">
      <stop offset="0" stop-color="#E2E8DC"/><stop offset="1" stop-color="#C8D5C0"/>
    </linearGradient>
  </defs>
  <rect width="600" height="600" fill="url(#bg)"/>
  <g fill="none" stroke="#211E1A" stroke-width="7" stroke-linecap="round" stroke-linejoin="round" opacity=".82">
    <path d="M150 272h300v34H150z"/>
    <ellipse cx="228" cy="272" rx="54" ry="19"/>
    <ellipse cx="372" cy="272" rx="54" ry="19"/>
    <path d="M174 272c0-17 24-30 54-30s54 13 54 30M318 272c0-17 24-30 54-30s54 13 54 30"/>
    <path d="M180 306l-18 116M420 306l18 116"/>
    <path d="M148 422h34M418 422h34"/>
    <path d="M188 372h224" stroke="#B4643E"/>
  </g>
</svg>
